2200 0 1 0           
15 SolidWorks 2017 12 ACIS 22.0 NT 24 Mon Sep 24 11:21:14 2018 
1 9.9999999999999995e-007 1e-010 
-0 body $1 -1 -1 $-1 $2 $-1 $-1 F #
-1 name_attrib-gen-attrib $-1 -1 $-1 $-1 $0 2 1 1 1 1 1 1 1 1 1 1 1 1 1 0 1 1 1 @11 CurvedMold1 #
-2 lump $3 -1 -1 $-1 $-1 $4 $0 F #
-3 rgb_color-st-attrib $-1 -1 $-1 $-1 $2 2 1 2 1 1 1 1 1 1 1 1 1 1 1 0 1 1 1 0.792156862745098 0.81960784313725488 0.93333333333333335 #
-4 shell $-1 -1 -1 $-1 $-1 $-1 $5 $-1 $2 F #
-5 face $6 -1 -1 $-1 $-1 $7 $4 $-1 $8 forward single F F #
-6 integer_attrib-name_attrib-gen-attrib $-1 -1 $-1 $-1 $5 2 1 2 1 1 1 1 1 1 1 1 1 1 1 0 1 1 1 @16 Surface-Extrude1 0 #
-7 loop $-1 -1 -1 $-1 $-1 $9 $5 F unknown #
-8 spline-surface $-1 -1 -1 $-1 forward { exactsur full nubs 3 1 open open none none 4 2 
	0 3 0.40011133412037092 1 0.59988866587962897 1 1 3 
	0 1 1 1 
	-50 50 0 
	-50 36.693916008401629 1.1128020020945903 
	-50 16.688333755579428 2.1147441071319153 
	-50 -16.688333755579436 2.114744107131914 
	-50 -36.693916008401615 1.1128020020945917 
	-50 -50 -6.1772920228719368e-017 
	50 50 0 
	50 36.693916008401629 1.1128020020945903 
	50 16.688333755579428 2.1147441071319153 
	50 -16.688333755579436 2.114744107131914 
	50 -36.693916008401615 1.1128020020945917 
	50 -50 -6.1772920228719368e-017 
	0 
	0 
	0 
	2 0.40011133412037092 0.59988866587962897 
	0 
	0 
	0 
	F 1 F 0 F 1 F 0 } I I I I #
-9 coedge $-1 -1 -1 $-1 $10 $11 $-1 $12 reversed $7 $13 #
-10 coedge $-1 -1 -1 $-1 $14 $9 $-1 $15 reversed $7 $16 #
-11 coedge $-1 -1 -1 $-1 $9 $14 $-1 $17 forward $7 $18 #
-12 edge $-1 -1 -1 $-1 $19 0 $20 1 $9 $21 forward @7 unknown F #
-13 pcurve $-1 -1 -1 $-1 0 forward { exppc nubs 1 open 2 
	-1 1 -0 1 
	1 1 
	0 1 
	0.001 
	-1 
	spline forward { ref 0 } I I I I 
	} 0 0 #
-14 coedge $-1 -1 -1 $-1 $11 $10 $-1 $22 forward $7 $23 #
-15 edge $-1 -1 -1 $-1 $24 -0.050000000000000003 $19 0.050000000000000003 $10 $25 forward @7 unknown F #
-16 pcurve $-1 -1 -1 $-1 0 forward { exppc nubs 1 open 2 
	-0.050000000000000003 1 0.050000000000000003 1 
	0 1 
	0 0 
	0.001 
	-1 
	spline forward { ref 0 } I I I I 
	} 0 0 #
-17 edge $-1 -1 -1 $-1 $26 -0.050000000000000003 $20 0.050000000000000003 $11 $27 forward @7 unknown F #
-18 pcurve $-1 -1 -1 $-1 0 forward { exppc nubs 1 open 2 
	-0.050000000000000003 1 0.050000000000000003 1 
	1 0 
	1 1 
	0.001 
	-1 
	spline forward { ref 0 } I I I I 
	} 0 0 #
-19 vertex $-1 -1 -1 $-1 $12 $28 #
-20 vertex $-1 -1 -1 $-1 $12 $29 #
-21 intcurve-curve $-1 -1 -1 $-1 forward { exactcur full nubs 3 open 4 
	0 3 0.40011133412037092 1 0.59988866587962897 1 1 3 
	50 50 0 
	50 36.693916008401629 1.1128020020945903 
	50 16.688333755579428 2.1147441071319153 
	50 -16.688333755579436 2.114744107131914 
	50 -36.693916008401615 1.1128020020945917 
	50 -50 -6.1772920228719368e-017 
	0 
	null_surface 
	null_surface 
	nullbs 
	nullbs 
	-1 
	-1 
	I I 
	0 
	0 
	2 0.40011133412037092 0.59988866587962897 
	
	-1 
	none F F 1 F 0 } I I #
-22 edge $-1 -1 -1 $-1 $24 0 $26 1 $14 $30 forward @7 unknown F #
-23 pcurve $-1 -1 -1 $-1 0 forward { exppc nubs 1 open 2 
	0 1 1 1 
	0 0 
	1 0 
	0.001 
	-1 
	spline forward { ref 0 } I I I I 
	} 0 0 #
-24 vertex $-1 -1 -1 $-1 $15 $31 #
-25 straight-curve $-1 -1 -1 $-1 0 50 0 1000 0 0 I I #
-26 vertex $-1 -1 -1 $-1 $22 $32 #
-27 straight-curve $-1 -1 -1 $-1 0 -50 -6.1772920228719368e-017 1000 0 0 I I #
-28 point $-1 -1 -1 $-1 50 50 0 #
-29 point $-1 -1 -1 $-1 50 -50 -6.1772920228719368e-017 #
-30 intcurve-curve $-1 -1 -1 $-1 forward { exactcur full nubs 3 open 4 
	0 3 0.40011133412037092 1 0.59988866587962897 1 1 3 
	-50 50 0 
	-50 36.693916008401629 1.1128020020945903 
	-50 16.688333755579428 2.1147441071319153 
	-50 -16.688333755579436 2.114744107131914 
	-50 -36.693916008401615 1.1128020020945917 
	-50 -50 -6.1772920228719368e-017 
	0 
	null_surface 
	null_surface 
	nullbs 
	nullbs 
	-1 
	-1 
	I I 
	0 
	0 
	2 0.40011133412037092 0.59988866587962897 
	
	-1 
	none F F 1 F 0 } I I #
-31 point $-1 -1 -1 $-1 -50 50 0 #
-32 point $-1 -1 -1 $-1 -50 -50 -6.1772920228719368e-017 #
End-of-ACIS-data 