2200 0 1 0           
15 SolidWorks 2017 12 ACIS 22.0 NT 24 Wed Dec 13 06:04:05 2017 
1 9.9999999999999995e-007 1e-010 
-0 body $1 -1 -1 $-1 $2 $-1 $-1 F #
-1 name_attrib-gen-attrib $-1 -1 $-1 $-1 $0 2 1 1 1 1 1 1 1 1 1 1 1 1 1 0 1 1 1 @12 CurvedShell1 #
-2 lump $3 -1 -1 $-1 $-1 $4 $0 F #
-3 rgb_color-st-attrib $-1 -1 $-1 $-1 $2 2 1 2 1 1 1 1 1 1 1 1 1 1 1 0 1 1 1 0.792156862745098 0.81960784313725488 0.93333333333333335 #
-4 shell $-1 -1 -1 $-1 $-1 $-1 $5 $-1 $2 F #
-5 face $6 -1 -1 $-1 $-1 $7 $4 $-1 $8 forward single F F #
-6 integer_attrib-name_attrib-gen-attrib $-1 -1 $9 $-1 $5 2 1 2 1 1 1 1 1 1 1 1 1 1 1 0 1 1 1 @13 Surface-Trim3 0 #
-7 loop $-1 -1 -1 $-1 $10 $11 $5 F unknown #
-8 spline-surface $-1 -1 -1 $-1 forward { exactsur full nubs 3 1 open open none none 4 2 
	0 3 0.41482389416741611 1 0.58517610583258395 1 1 3 
	0 1 1 1 
	-500 500 0 
	-500 410.1520020204141 138.78542633992555 
	-500 199.43654834078922 271.16414847488574 
	-500 -199.43654834078927 271.16414847488591 
	-500 -410.1520020204141 138.78542633992544 
	-500 -500 5.7781040926876473e-015 
	500 500 0 
	500 410.1520020204141 138.78542633992555 
	500 199.43654834078922 271.16414847488574 
	500 -199.43654834078927 271.16414847488591 
	500 -410.1520020204141 138.78542633992544 
	500 -500 5.7781040926876473e-015 
	0 
	0 
	0 
	2 0.41482389416741611 0.58517610583258395 
	0 
	0 
	0 
	F 1 F 0 F 1 F 0 } I I I I #
-9 rgb_color-st-attrib $-1 -1 $-1 $6 $5 2 1 2 1 1 1 1 1 1 1 1 1 1 1 0 1 1 1 0 1 1 #
-10 loop $-1 -1 -1 $-1 $-1 $12 $5 F unknown #
-11 coedge $-1 -1 -1 $-1 $13 $14 $-1 $15 reversed $7 $16 #
-12 coedge $-1 -1 -1 $-1 $17 $18 $-1 $19 reversed $10 $20 #
-13 coedge $-1 -1 -1 $-1 $21 $11 $-1 $22 reversed $7 $23 #
-14 coedge $-1 -1 -1 $-1 $11 $21 $-1 $24 reversed $7 $25 #
-15 edge $-1 -1 -1 $-1 $26 0.4575653468872849 $27 0.5424346531127241 $11 $28 forward @7 unknown F #
-16 pcurve $-1 -1 -1 $-1 0 forward { exppc nubs 1 open 2 
	-0.5424346531127241 1 -0.4575653468872849 1 
	0.45756534688726697 0.55000000000000004 
	0.54243465311273309 0.55000000000000004 
	0.001 
	-1 
	spline forward { ref 0 } I I I I 
	} 0 0 #
-17 coedge $-1 -1 -1 $-1 $29 $12 $-1 $30 reversed $10 $31 #
-18 coedge $-1 -1 -1 $-1 $12 $29 $-1 $32 forward $10 $33 #
-19 edge $-1 -1 -1 $-1 $34 0 $35 1 $12 $36 forward @7 unknown F #
-20 pcurve $-1 -1 -1 $-1 0 forward { exppc nubs 1 open 2 
	-1 1 -0 1 
	1 1 
	0 1 
	0.001 
	-1 
	spline forward { ref 0 } I I I I 
	} 0 0 #
-21 coedge $-1 -1 -1 $-1 $14 $13 $-1 $37 reversed $7 $38 #
-22 edge $-1 -1 -1 $-1 $39 -0.050000000000000024 $26 0.050000000000000003 $13 $40 forward @7 unknown F #
-23 pcurve $-1 -1 -1 $-1 0 forward { exppc nubs 1 open 2 
	-0.050000000000000003 1 0.050000000000000024 1 
	0.54243465311273309 0.55000000000000004 
	0.54243465311273309 0.45000000000000001 
	0.001 
	-1 
	spline forward { ref 0 } I I I I 
	} 0 0 #
-24 edge $-1 -1 -1 $-1 $27 -0.049999999999999996 $41 0.050000000000000024 $14 $42 forward @7 unknown F #
-25 pcurve $-1 -1 -1 $-1 0 forward { exppc nubs 1 open 2 
	-0.050000000000000024 1 0.049999999999999996 1 
	0.45756534688726697 0.45000000000000001 
	0.45756534688726697 0.55000000000000004 
	0.001 
	-1 
	spline forward { ref 0 } I I I I 
	} 0 0 #
-26 vertex $-1 -1 -1 $-1 $15 $43 #
-27 vertex $-1 -1 -1 $-1 $24 $44 #
-28 intcurve-curve $-1 -1 -1 $-1 forward { exactcur full nubs 3 open 2 
	0.4575653468872849 3 0.5424346531127241 3 
	50 -50.000000000000135 266.27111551588501 
	50 -16.745944267979453 269.055609727731 
	49.999999999999986 16.745944267990009 269.05560972773071 
	49.999999999999993 50.000000000000043 266.27111551588501 
	0 
	null_surface 
	null_surface 
	nullbs 
	nullbs 
	-1 
	-1 
	I I 
	0 
	0 
	0 
	
	-1 
	none F F 1 F 0 } I I #
-29 coedge $-1 -1 -1 $-1 $18 $17 $-1 $45 forward $10 $46 #
-30 edge $-1 -1 -1 $-1 $47 -0.5 $34 0.5 $17 $48 forward @7 unknown F #
-31 pcurve $-1 -1 -1 $-1 0 forward { exppc nubs 1 open 2 
	-0.5 1 0.5 1 
	0 1 
	0 0 
	0.001 
	-1 
	spline forward { ref 0 } I I I I 
	} 0 0 #
-32 edge $-1 -1 -1 $-1 $49 -0.5 $35 0.5 $18 $50 forward @7 unknown F #
-33 pcurve $-1 -1 -1 $-1 0 forward { exppc nubs 1 open 2 
	-0.5 1 0.5 1 
	1 0 
	1 1 
	0.001 
	-1 
	spline forward { ref 0 } I I I I 
	} 0 0 #
-34 vertex $-1 -1 -1 $-1 $19 $51 #
-35 vertex $-1 -1 -1 $-1 $19 $52 #
-36 intcurve-curve $-1 -1 -1 $-1 forward { exactcur full nubs 3 open 4 
	0 3 0.41482389416741611 1 0.58517610583258395 1 1 3 
	500 500 0 
	500 410.1520020204141 138.78542633992555 
	500 199.43654834078922 271.16414847488574 
	500 -199.43654834078927 271.16414847488591 
	500 -410.1520020204141 138.78542633992544 
	500 -500 5.7781040926876473e-015 
	0 
	null_surface 
	null_surface 
	nullbs 
	nullbs 
	-1 
	-1 
	I I 
	0 
	0 
	2 0.41482389416741611 0.58517610583258395 
	
	-1 
	none F F 1 F 0 } I I #
-37 edge $-1 -1 -1 $-1 $41 0.4575653468872759 $39 0.54243465311273287 $21 $53 forward @7 unknown F #
-38 pcurve $-1 -1 -1 $-1 0 forward { exppc nubs 1 open 2 
	-0.54243465311273287 1 -0.4575653468872759 1 
	0.54243465311273287 0.45000000000000001 
	0.45756534688726697 0.45000000000000001 
	0.001 
	-1 
	spline forward { ref 0 } I I I I 
	} 0 0 #
-39 vertex $-1 -1 -1 $-1 $37 $54 #
-40 straight-curve $-1 -1 -1 $-1 0 -50.000000000000135 266.27111551588501 1000 0 0 I I #
-41 vertex $-1 -1 -1 $-1 $37 $55 #
-42 straight-curve $-1 -1 -1 $-1 0 50.000000000000043 266.27111551588501 -1000 -0 -0 I I #
-43 point $-1 -1 -1 $-1 50 -50.000000000000135 266.27111551588501 #
-44 point $-1 -1 -1 $-1 49.999999999999993 50.000000000000043 266.27111551588501 #
-45 edge $-1 -1 -1 $-1 $47 0 $49 1 $29 $56 forward @7 unknown F #
-46 pcurve $-1 -1 -1 $-1 0 forward { exppc nubs 1 open 2 
	0 1 1 1 
	0 0 
	1 0 
	0.001 
	-1 
	spline forward { ref 0 } I I I I 
	} 0 0 #
-47 vertex $-1 -1 -1 $-1 $30 $57 #
-48 straight-curve $-1 -1 -1 $-1 0 500 0 1000 0 0 I I #
-49 vertex $-1 -1 -1 $-1 $45 $58 #
-50 straight-curve $-1 -1 -1 $-1 0 -500 5.7781040926876473e-015 1000 0 0 I I #
-51 point $-1 -1 -1 $-1 500 500 0 #
-52 point $-1 -1 -1 $-1 500 -500 5.7781040926876473e-015 #
-53 intcurve-curve $-1 -1 -1 $-1 forward { exactcur full nubs 3 open 2 
	0.4575653468872759 3 0.54243465311273287 3 
	-50.000000000000021 50.000000000000043 266.27111551588501 
	-50.000000000000028 16.745944267983077 269.05560972773134 
	-50.000000000000028 -16.745944267993437 269.05560972773105 
	-50.000000000000021 -49.999999999999865 266.27111551588507 
	0 
	null_surface 
	null_surface 
	nullbs 
	nullbs 
	-1 
	-1 
	I I 
	0 
	0 
	0 
	
	-1 
	none F F 1 F 0 } I I #
-54 point $-1 -1 -1 $-1 -50.000000000000021 -49.999999999999865 266.27111551588507 #
-55 point $-1 -1 -1 $-1 -50.000000000000021 50.000000000000043 266.27111551588501 #
-56 intcurve-curve $-1 -1 -1 $-1 forward { exactcur full nubs 3 open 4 
	0 3 0.41482389416741611 1 0.58517610583258395 1 1 3 
	-500 500 0 
	-500 410.1520020204141 138.78542633992555 
	-500 199.43654834078922 271.16414847488574 
	-500 -199.43654834078927 271.16414847488591 
	-500 -410.1520020204141 138.78542633992544 
	-500 -500 5.7781040926876473e-015 
	0 
	null_surface 
	null_surface 
	nullbs 
	nullbs 
	-1 
	-1 
	I I 
	0 
	0 
	2 0.41482389416741611 0.58517610583258395 
	
	-1 
	none F F 1 F 0 } I I #
-57 point $-1 -1 -1 $-1 -500 500 0 #
-58 point $-1 -1 -1 $-1 -500 -500 5.7781040926876473e-015 #
End-of-ACIS-data 