2200 0 1 0           
15 SolidWorks 2017 12 ACIS 22.0 NT 24 Tue Feb 06 16:45:52 2018 
1 9.9999999999999995e-007 1e-010 
-0 body $1 -1 -1 $-1 $2 $-1 $-1 F #
-1 name_attrib-gen-attrib $-1 -1 $-1 $-1 $0 2 1 1 1 1 1 1 1 1 1 1 1 1 1 0 1 1 1 @10 FlatShell2 #
-2 lump $3 -1 -1 $-1 $-1 $4 $0 F #
-3 rgb_color-st-attrib $-1 -1 $-1 $-1 $2 2 1 2 1 1 1 1 1 1 1 1 1 1 1 0 1 1 1 0.792156862745098 0.81960784313725488 0.93333333333333335 #
-4 shell $-1 -1 -1 $-1 $-1 $-1 $5 $-1 $2 F #
-5 face $6 -1 -1 $-1 $-1 $7 $4 $-1 $8 forward single F F #
-6 integer_attrib-name_attrib-gen-attrib $-1 -1 $9 $-1 $5 2 1 2 1 1 1 1 1 1 1 1 1 1 1 0 1 1 1 @13 Surface-Trim3 0 #
-7 loop $-1 -1 -1 $-1 $10 $11 $5 F unknown #
-8 plane-surface $-1 -1 -1 $-1 0 500 0 0 -6.018531076210112e-036 1 0 -1000 -6.018531076210112e-033 forward_v I I I I #
-9 rgb_color-st-attrib $-1 -1 $-1 $6 $5 2 1 2 1 1 1 1 1 1 1 1 1 1 1 0 1 1 1 0.0078431372549019607 0.23921568627450979 0.82352941176470584 #
-10 loop $-1 -1 -1 $-1 $-1 $12 $5 F unknown #
-11 coedge $-1 -1 -1 $-1 $13 $14 $-1 $15 reversed $7 $-1 #
-12 coedge $-1 -1 -1 $-1 $16 $17 $-1 $18 reversed $10 $-1 #
-13 coedge $-1 -1 -1 $-1 $19 $11 $-1 $20 reversed $7 $-1 #
-14 coedge $-1 -1 -1 $-1 $11 $21 $-1 $22 reversed $7 $-1 #
-15 edge $-1 -1 -1 $-1 $23 0.47000000000000014 $24 0.52999999999999992 $11 $25 forward @7 unknown F #
-16 coedge $-1 -1 -1 $-1 $26 $12 $-1 $27 reversed $10 $-1 #
-17 coedge $-1 -1 -1 $-1 $12 $26 $-1 $28 forward $10 $-1 #
-18 edge $-1 -1 -1 $-1 $29 0 $30 1 $12 $31 forward @7 unknown F #
-19 coedge $-1 -1 -1 $-1 $32 $13 $-1 $33 reversed $7 $-1 #
-20 edge $-1 -1 -1 $-1 $34 -3.1415926535898002 $23 -1.5707963267948895 $13 $35 forward @7 unknown F #
-21 coedge $-1 -1 -1 $-1 $14 $36 $-1 $37 reversed $7 $-1 #
-22 edge $-1 -1 -1 $-1 $24 -1.5707963267949032 $38 0 $14 $39 forward @7 unknown F #
-23 vertex $-1 -1 -1 $-1 $15 $40 #
-24 vertex $-1 -1 -1 $-1 $22 $41 #
-25 straight-curve $-1 -1 -1 $-1 -50.000000000000071 500 -3.4801623829325679e-050 1.1564823173178768e-013 -1000 -6.018531076210112e-033 I I #
-26 coedge $-1 -1 -1 $-1 $17 $16 $-1 $42 forward $10 $-1 #
-27 edge $-1 -1 -1 $-1 $43 -0.5 $29 0.5 $16 $44 forward @7 unknown F #
-28 edge $-1 -1 -1 $-1 $45 -0.5 $30 0.5 $17 $46 forward @7 unknown F #
-29 vertex $-1 -1 -1 $-1 $18 $47 #
-30 vertex $-1 -1 -1 $-1 $18 $48 #
-31 intcurve-curve $-1 -1 -1 $-1 forward { exactcur full nubs 3 open 4 
	0 3 0.40000000000000002 1 0.60000000000000009 1 1 3 
	500 500 0 
	500 366.66666666666646 9.6296497219361793e-032 
	500 166.66666666666677 -1.4444474582904269e-031 
	500 -166.66666666666671 0 
	500 -366.66666666666669 0 
	500 -500 -6.018531076210112e-033 
	0 
	null_surface 
	null_surface 
	nullbs 
	nullbs 
	-1 
	-1 
	I I 
	0 
	0 
	0 
	
	-1 
	none F F 1 F 0 } I I #
-32 coedge $-1 -1 -1 $-1 $49 $19 $-1 $50 reversed $7 $-1 #
-33 edge $-1 -1 -1 $-1 $51 -0.029999999999999853 $34 0.029999999999999881 $19 $52 forward @7 unknown F #
-34 vertex $-1 -1 -1 $-1 $33 $53 #
-35 ellipse-curve $-1 -1 -1 $-1 -30.000000000000021 30.000000000000004 -2.8287096058187527e-033 0 -6.018531076210112e-036 1 0 -19.999999999999996 -1.2037062152420235e-034 1 I I #
-36 coedge $-1 -1 -1 $-1 $21 $49 $-1 $54 reversed $7 $-1 #
-37 edge $-1 -1 -1 $-1 $38 -0.030000000000000009 $55 0.029999999999999857 $21 $56 forward @7 unknown F #
-38 vertex $-1 -1 -1 $-1 $37 $57 #
-39 ellipse-curve $-1 -1 -1 $-1 -30.000000000000011 -30 -3.1898214703913594e-033 0 -6.018531076210112e-036 1 0 -20.000000000000004 -1.2037062152420235e-034 1 I I #
-40 point $-1 -1 -1 $-1 -50.000000000000014 29.999999999999861 -2.8287096058187533e-033 #
-41 point $-1 -1 -1 $-1 -50.000000000000014 -29.999999999999861 -3.1898214703913587e-033 #
-42 edge $-1 -1 -1 $-1 $43 0 $45 1 $26 $58 forward @7 unknown F #
-43 vertex $-1 -1 -1 $-1 $27 $59 #
-44 straight-curve $-1 -1 -1 $-1 0 500 0 1000 0 0 I I #
-45 vertex $-1 -1 -1 $-1 $42 $60 #
-46 straight-curve $-1 -1 -1 $-1 0 -500 -6.018531076210112e-033 1000 0 0 I I #
-47 point $-1 -1 -1 $-1 500 500 0 #
-48 point $-1 -1 -1 $-1 500 -500 -6.018531076210112e-033 #
-49 coedge $-1 -1 -1 $-1 $36 $32 $-1 $61 reversed $7 $-1 #
-50 edge $-1 -1 -1 $-1 $62 1.5707963267948895 $51 3.1415926535898002 $32 $63 forward @7 unknown F #
-51 vertex $-1 -1 -1 $-1 $33 $64 #
-52 straight-curve $-1 -1 -1 $-1 0 49.999999999999986 -2.7083389842945504e-033 -1000 0 0 I I #
-53 point $-1 -1 -1 $-1 -29.999999999999879 49.999999999999986 -2.7083389842945504e-033 #
-54 edge $-1 -1 -1 $-1 $55 -7.2830630415410263e-015 $65 1.5707963267949037 $36 $66 forward @7 unknown F #
-55 vertex $-1 -1 -1 $-1 $54 $67 #
-56 straight-curve $-1 -1 -1 $-1 0 -50.000000000000043 -3.3101920919155616e-033 1000 0 0 I I #
-57 point $-1 -1 -1 $-1 -30.000000000000011 -50 -3.3101920919155616e-033 #
-58 intcurve-curve $-1 -1 -1 $-1 forward { exactcur full nubs 3 open 4 
	0 3 0.40000000000000002 1 0.60000000000000009 1 1 3 
	-500 500 0 
	-500 366.66666666666646 9.6296497219361793e-032 
	-500 166.66666666666677 -1.4444474582904269e-031 
	-500 -166.66666666666671 0 
	-500 -366.66666666666669 0 
	-500 -500 -6.018531076210112e-033 
	0 
	null_surface 
	null_surface 
	nullbs 
	nullbs 
	-1 
	-1 
	I I 
	0 
	0 
	0 
	
	-1 
	none F F 1 F 0 } I I #
-59 point $-1 -1 -1 $-1 -500 500 0 #
-60 point $-1 -1 -1 $-1 -500 -500 -6.018531076210112e-033 #
-61 edge $-1 -1 -1 $-1 $65 -0.52999999999999992 $62 -0.47000000000000014 $49 $68 forward @7 unknown F #
-62 vertex $-1 -1 -1 $-1 $50 $69 #
-63 ellipse-curve $-1 -1 -1 $-1 29.999999999999996 30 -2.8287096058187527e-033 0 -6.018531076210112e-036 1 0 -20.000000000000004 -1.2037062152420235e-034 1 I I #
-64 point $-1 -1 -1 $-1 29.999999999999854 50 -2.7083389842945501e-033 #
-65 vertex $-1 -1 -1 $-1 $61 $70 #
-66 ellipse-curve $-1 -1 -1 $-1 30.000000000000004 -30.000000000000004 -3.1898214703913594e-033 0 -6.018531076210112e-036 1 0 -20 -1.2037062152420235e-034 1 I I #
-67 point $-1 -1 -1 $-1 29.999999999999858 -50.000000000000043 -3.3101920919155616e-033 #
-68 straight-curve $-1 -1 -1 $-1 49.999999999999943 500 3.4801623829325584e-050 -1.1564823173178768e-013 1000 6.018531076210112e-033 I I #
-69 point $-1 -1 -1 $-1 49.999999999999993 29.999999999999861 -2.8287096058187533e-033 #
-70 point $-1 -1 -1 $-1 50 -29.999999999999861 -3.1898214703913587e-033 #
End-of-ACIS-data 