2000 0 1 0           
15 SolidWorks 2017 12 ACIS 22.0 NT 24 Wed Nov 29 23:58:11 2017 
1 9.9999999999999995e-007 1e-010 
-0 body $1 -1 -1 $-1 $2 $-1 $-1 F #
-1 name_attrib-gen-attrib $-1 -1 $-1 $-1 $0 2 1 1 1 1 1 1 1 1 1 1 1 1 1 0 1 1 1 @9 FlatShell #
-2 lump $3 -1 -1 $-1 $-1 $4 $0 F #
-3 rgb_color-st-attrib $-1 -1 $-1 $-1 $2 2 1 2 1 1 1 1 1 1 1 1 1 1 1 0 1 1 1 0.792156862745098 0.81960784313725488 0.93333333333333335 #
-4 shell $-1 -1 -1 $-1 $-1 $-1 $5 $-1 $2 F #
-5 face $6 -1 -1 $-1 $-1 $7 $4 $-1 $8 forward single F F #
-6 integer_attrib-name_attrib-gen-attrib $-1 -1 $-1 $-1 $5 2 1 2 1 1 1 1 1 1 1 1 1 1 1 0 1 1 1 @13 Surface-Trim3 0 #
-7 loop $-1 -1 -1 $-1 $9 $10 $5 F unknown #
-8 plane-surface $-1 -1 -1 $-1 0 500 0 0 -6.018531076210112e-036 1 0 -1000 -6.018531076210112e-033 forward_v I I I I #
-9 loop $-1 -1 -1 $-1 $-1 $11 $5 F unknown #
-10 coedge $-1 -1 -1 $-1 $12 $13 $-1 $14 reversed $7 $-1 #
-11 coedge $-1 -1 -1 $-1 $15 $16 $-1 $17 reversed $9 $-1 #
-12 coedge $-1 -1 -1 $-1 $18 $10 $-1 $19 reversed $7 $-1 #
-13 coedge $-1 -1 -1 $-1 $10 $18 $-1 $20 reversed $7 $-1 #
-14 edge $-1 -1 -1 $-1 $21 -0.049999999999999989 $22 0.050000000000000024 $10 $23 forward @7 unknown F #
-15 coedge $-1 -1 -1 $-1 $24 $11 $-1 $25 reversed $9 $-1 #
-16 coedge $-1 -1 -1 $-1 $11 $24 $-1 $26 forward $9 $-1 #
-17 edge $-1 -1 -1 $-1 $27 0 $28 1 $11 $29 forward @7 unknown F #
-18 coedge $-1 -1 -1 $-1 $13 $12 $-1 $30 reversed $7 $-1 #
-19 edge $-1 -1 -1 $-1 $31 -0.55000000000000004 $21 -0.44999999999999996 $12 $32 forward @7 unknown F #
-20 edge $-1 -1 -1 $-1 $22 0.44999999999999996 $33 0.54999999999999993 $13 $34 forward @7 unknown F #
-21 vertex $-1 -1 -1 $-1 $14 $35 #
-22 vertex $-1 -1 -1 $-1 $20 $36 #
-23 straight-curve $-1 -1 -1 $-1 0 49.999999999999986 -2.7083389842945504e-033 -1000 0 0 I I #
-24 coedge $-1 -1 -1 $-1 $16 $15 $-1 $37 forward $9 $-1 #
-25 edge $-1 -1 -1 $-1 $38 -0.5 $27 0.5 $15 $39 forward @7 unknown F #
-26 edge $-1 -1 -1 $-1 $40 -0.5 $28 0.5 $16 $41 forward @7 unknown F #
-27 vertex $-1 -1 -1 $-1 $17 $42 #
-28 vertex $-1 -1 -1 $-1 $17 $43 #
-29 intcurve-curve $-1 -1 -1 $-1 forward { exactcur full nubs 3 open 4 
	0 3 0.40000000000000002 1 0.60000000000000009 1 1 3 
	500 500 0 
	500 366.66666666666646 9.6296497219361793e-032 
	500 166.66666666666677 -1.4444474582904269e-031 
	500 -166.66666666666671 0 
	500 -366.66666666666669 0 
	500 -500 -6.018531076210112e-033 
	0 
	null_surface 
	null_surface 
	nullbs 
	nullbs 
	-1 
	-1 
	I I 
	0 
	0 
	0 
	
	-1 
	none F F 1 F 0 } I I #
-30 edge $-1 -1 -1 $-1 $33 -0.05000000000000001 $31 0.050000000000000003 $18 $44 forward @7 unknown F #
-31 vertex $-1 -1 -1 $-1 $30 $45 #
-32 straight-curve $-1 -1 -1 $-1 49.999999999999964 500 2.0880974297595262e-050 -6.9388939039072284e-014 1000 6.018531076210112e-033 I I #
-33 vertex $-1 -1 -1 $-1 $30 $46 #
-34 straight-curve $-1 -1 -1 $-1 -50.000000000000085 500 -4.1761948595190633e-050 1.3877787807814457e-013 -1000 -6.018531076210112e-033 I I #
-35 point $-1 -1 -1 $-1 49.999999999999986 50.000000000000043 -2.7083389842945501e-033 #
-36 point $-1 -1 -1 $-1 -50.000000000000021 50.000000000000043 -2.7083389842945501e-033 #
-37 edge $-1 -1 -1 $-1 $38 0 $40 1 $24 $47 forward @7 unknown F #
-38 vertex $-1 -1 -1 $-1 $25 $48 #
-39 straight-curve $-1 -1 -1 $-1 0 500 0 1000 0 0 I I #
-40 vertex $-1 -1 -1 $-1 $37 $49 #
-41 straight-curve $-1 -1 -1 $-1 0 -500 -6.018531076210112e-033 1000 0 0 I I #
-42 point $-1 -1 -1 $-1 500 500 0 #
-43 point $-1 -1 -1 $-1 500 -500 -6.018531076210112e-033 #
-44 straight-curve $-1 -1 -1 $-1 0 -50.000000000000043 -3.3101920919155616e-033 1000 0 0 I I #
-45 point $-1 -1 -1 $-1 50 -50.000000000000043 -3.3101920919155616e-033 #
-46 point $-1 -1 -1 $-1 -50.000000000000007 -49.999999999999936 -3.3101920919155609e-033 #
-47 intcurve-curve $-1 -1 -1 $-1 forward { exactcur full nubs 3 open 4 
	0 3 0.40000000000000002 1 0.60000000000000009 1 1 3 
	-500 500 0 
	-500 366.66666666666646 9.6296497219361793e-032 
	-500 166.66666666666677 -1.4444474582904269e-031 
	-500 -166.66666666666671 0 
	-500 -366.66666666666669 0 
	-500 -500 -6.018531076210112e-033 
	0 
	null_surface 
	null_surface 
	nullbs 
	nullbs 
	-1 
	-1 
	I I 
	0 
	0 
	0 
	
	-1 
	none F F 1 F 0 } I I #
-48 point $-1 -1 -1 $-1 -500 500 0 #
-49 point $-1 -1 -1 $-1 -500 -500 -6.018531076210112e-033 #
End-of-ACIS-data 