2200 0 1 0           
15 SolidWorks 2017 12 ACIS 22.0 NT 24 Tue Feb 06 16:43:31 2018 
1 9.9999999999999995e-007 1e-010 
-0 body $1 -1 -1 $-1 $2 $-1 $-1 F #
-1 name_attrib-gen-attrib $-1 -1 $-1 $-1 $0 2 1 1 1 1 1 1 1 1 1 1 1 1 1 0 1 1 1 @9 FlatMold2 #
-2 lump $3 -1 -1 $-1 $-1 $4 $0 F #
-3 rgb_color-st-attrib $-1 -1 $-1 $-1 $2 2 1 2 1 1 1 1 1 1 1 1 1 1 1 0 1 1 1 0.792156862745098 0.81960784313725488 0.93333333333333335 #
-4 shell $-1 -1 -1 $-1 $-1 $-1 $5 $-1 $2 F #
-5 face $6 -1 -1 $-1 $-1 $7 $4 $-1 $8 forward single F F #
-6 integer_attrib-name_attrib-gen-attrib $-1 -1 $9 $-1 $5 2 1 2 1 1 1 1 1 1 1 1 1 1 1 0 1 1 1 @13 Surface-Trim3 0 #
-7 loop $-1 -1 -1 $-1 $-1 $10 $5 F unknown #
-8 plane-surface $-1 -1 -1 $-1 0 500 0 0 -6.018531076210112e-036 1 0 -1000 -6.018531076210112e-033 forward_v I I I I #
-9 rgb_color-st-attrib $-1 -1 $-1 $6 $5 2 1 2 1 1 1 1 1 1 1 1 1 1 1 0 1 1 1 0.792156862745098 0.81960784313725488 0.93333333333333335 #
-10 coedge $-1 -1 -1 $-1 $11 $12 $-1 $13 forward $7 $-1 #
-11 coedge $-1 -1 -1 $-1 $14 $10 $-1 $15 forward $7 $-1 #
-12 coedge $-1 -1 -1 $-1 $10 $16 $-1 $17 forward $7 $-1 #
-13 edge $-1 -1 -1 $-1 $18 -3.1415926535898002 $19 -1.5707963267948895 $10 $20 forward @7 unknown F #
-14 coedge $-1 -1 -1 $-1 $21 $11 $-1 $22 forward $7 $-1 #
-15 edge $-1 -1 -1 $-1 $19 0.47000000000000014 $23 0.52999999999999992 $11 $24 forward @7 unknown F #
-16 coedge $-1 -1 -1 $-1 $12 $25 $-1 $26 forward $7 $-1 #
-17 edge $-1 -1 -1 $-1 $27 -0.029999999999999853 $18 0.029999999999999881 $12 $28 forward @7 unknown F #
-18 vertex $-1 -1 -1 $-1 $17 $29 #
-19 vertex $-1 -1 -1 $-1 $13 $30 #
-20 ellipse-curve $-1 -1 -1 $-1 -30.000000000000021 30.000000000000004 -2.8287096058187527e-033 0 -6.018531076210112e-036 1 0 -19.999999999999996 -1.2037062152420235e-034 1 I I #
-21 coedge $-1 -1 -1 $-1 $31 $14 $-1 $32 forward $7 $-1 #
-22 edge $-1 -1 -1 $-1 $23 -1.5707963267949032 $33 0 $14 $34 forward @7 unknown F #
-23 vertex $-1 -1 -1 $-1 $22 $35 #
-24 straight-curve $-1 -1 -1 $-1 -50.000000000000071 500 -3.4801623829325679e-050 1.1564823173178768e-013 -1000 -6.018531076210112e-033 I I #
-25 coedge $-1 -1 -1 $-1 $16 $31 $-1 $36 forward $7 $-1 #
-26 edge $-1 -1 -1 $-1 $37 1.5707963267948895 $27 3.1415926535898002 $16 $38 forward @7 unknown F #
-27 vertex $-1 -1 -1 $-1 $26 $39 #
-28 straight-curve $-1 -1 -1 $-1 0 49.999999999999986 -2.7083389842945504e-033 -1000 0 0 I I #
-29 point $-1 -1 -1 $-1 -29.999999999999879 49.999999999999986 -2.7083389842945504e-033 #
-30 point $-1 -1 -1 $-1 -50.000000000000014 29.999999999999861 -2.8287096058187533e-033 #
-31 coedge $-1 -1 -1 $-1 $25 $21 $-1 $40 forward $7 $-1 #
-32 edge $-1 -1 -1 $-1 $33 -0.030000000000000009 $41 0.029999999999999857 $21 $42 forward @7 unknown F #
-33 vertex $-1 -1 -1 $-1 $22 $43 #
-34 ellipse-curve $-1 -1 -1 $-1 -30.000000000000011 -30 -3.1898214703913594e-033 0 -6.018531076210112e-036 1 0 -20.000000000000004 -1.2037062152420235e-034 1 I I #
-35 point $-1 -1 -1 $-1 -50.000000000000014 -29.999999999999861 -3.1898214703913587e-033 #
-36 edge $-1 -1 -1 $-1 $44 -0.52999999999999992 $37 -0.47000000000000014 $25 $45 forward @7 unknown F #
-37 vertex $-1 -1 -1 $-1 $36 $46 #
-38 ellipse-curve $-1 -1 -1 $-1 29.999999999999996 30 -2.8287096058187527e-033 0 -6.018531076210112e-036 1 0 -20.000000000000004 -1.2037062152420235e-034 1 I I #
-39 point $-1 -1 -1 $-1 29.999999999999854 50 -2.7083389842945501e-033 #
-40 edge $-1 -1 -1 $-1 $41 -7.2830630415410263e-015 $44 1.5707963267949037 $31 $47 forward @7 unknown F #
-41 vertex $-1 -1 -1 $-1 $32 $48 #
-42 straight-curve $-1 -1 -1 $-1 0 -50.000000000000043 -3.3101920919155616e-033 1000 0 0 I I #
-43 point $-1 -1 -1 $-1 -30.000000000000011 -50 -3.3101920919155616e-033 #
-44 vertex $-1 -1 -1 $-1 $40 $49 #
-45 straight-curve $-1 -1 -1 $-1 49.999999999999943 500 3.4801623829325584e-050 -1.1564823173178768e-013 1000 6.018531076210112e-033 I I #
-46 point $-1 -1 -1 $-1 49.999999999999993 29.999999999999861 -2.8287096058187533e-033 #
-47 ellipse-curve $-1 -1 -1 $-1 30.000000000000004 -30.000000000000004 -3.1898214703913594e-033 0 -6.018531076210112e-036 1 0 -20 -1.2037062152420235e-034 1 I I #
-48 point $-1 -1 -1 $-1 29.999999999999858 -50.000000000000043 -3.3101920919155616e-033 #
-49 point $-1 -1 -1 $-1 50 -29.999999999999861 -3.1898214703913587e-033 #
End-of-ACIS-data 