2000 0 1 0           
15 SolidWorks 2017 12 ACIS 22.0 NT 24 Wed Nov 29 23:57:04 2017 
1 9.9999999999999995e-007 1e-010 
-0 body $1 -1 -1 $-1 $2 $-1 $-1 F #
-1 name_attrib-gen-attrib $-1 -1 $-1 $-1 $0 2 1 1 1 1 1 1 1 1 1 1 1 1 1 0 1 1 1 @8 FlatMold #
-2 lump $3 -1 -1 $-1 $-1 $4 $0 F #
-3 rgb_color-st-attrib $-1 -1 $-1 $-1 $2 2 1 2 1 1 1 1 1 1 1 1 1 1 1 0 1 1 1 0.792156862745098 0.81960784313725488 0.93333333333333335 #
-4 shell $-1 -1 -1 $-1 $-1 $-1 $5 $-1 $2 F #
-5 face $6 -1 -1 $-1 $-1 $7 $4 $-1 $8 forward single F F #
-6 integer_attrib-name_attrib-gen-attrib $-1 -1 $-1 $-1 $5 2 1 2 1 1 1 1 1 1 1 1 1 1 1 0 1 1 1 @13 Surface-Trim3 0 #
-7 loop $-1 -1 -1 $-1 $-1 $9 $5 F unknown #
-8 plane-surface $-1 -1 -1 $-1 0 500 0 0 -6.018531076210112e-036 1 0 -1000 -6.018531076210112e-033 forward_v I I I I #
-9 coedge $-1 -1 -1 $-1 $10 $11 $-1 $12 forward $7 $-1 #
-10 coedge $-1 -1 -1 $-1 $13 $9 $-1 $14 forward $7 $-1 #
-11 coedge $-1 -1 -1 $-1 $9 $13 $-1 $15 forward $7 $-1 #
-12 edge $-1 -1 -1 $-1 $16 -0.55000000000000004 $17 -0.44999999999999996 $9 $18 forward @7 unknown F #
-13 coedge $-1 -1 -1 $-1 $11 $10 $-1 $19 forward $7 $-1 #
-14 edge $-1 -1 -1 $-1 $17 -0.049999999999999989 $20 0.050000000000000024 $10 $21 forward @7 unknown F #
-15 edge $-1 -1 -1 $-1 $22 -0.05000000000000001 $16 0.050000000000000003 $11 $23 forward @7 unknown F #
-16 vertex $-1 -1 -1 $-1 $15 $24 #
-17 vertex $-1 -1 -1 $-1 $12 $25 #
-18 straight-curve $-1 -1 -1 $-1 49.999999999999964 500 2.0880974297595262e-050 -6.9388939039072284e-014 1000 6.018531076210112e-033 I I #
-19 edge $-1 -1 -1 $-1 $20 0.44999999999999996 $22 0.54999999999999993 $13 $26 forward @7 unknown F #
-20 vertex $-1 -1 -1 $-1 $19 $27 #
-21 straight-curve $-1 -1 -1 $-1 0 49.999999999999986 -2.7083389842945504e-033 -1000 0 0 I I #
-22 vertex $-1 -1 -1 $-1 $19 $28 #
-23 straight-curve $-1 -1 -1 $-1 0 -50.000000000000043 -3.3101920919155616e-033 1000 0 0 I I #
-24 point $-1 -1 -1 $-1 50 -50.000000000000043 -3.3101920919155616e-033 #
-25 point $-1 -1 -1 $-1 49.999999999999986 50.000000000000043 -2.7083389842945501e-033 #
-26 straight-curve $-1 -1 -1 $-1 -50.000000000000085 500 -4.1761948595190633e-050 1.3877787807814457e-013 -1000 -6.018531076210112e-033 I I #
-27 point $-1 -1 -1 $-1 -50.000000000000021 50.000000000000043 -2.7083389842945501e-033 #
-28 point $-1 -1 -1 $-1 -50.000000000000007 -49.999999999999936 -3.3101920919155609e-033 #
End-of-ACIS-data 